<svg xmlns="http://www.w3.org/2000/svg" width="130" height="20" viewBox="0 0 6.637 1.072">
  <g transform="translate(.002)">
     <path fill="#1e293b" d="m1.416.069.258.728.256-.728h.272v1.003h-.208V.798l.02-.473-.27.747h-.142l-.27-.747.02.473v.274h-.206V.069Z"/>
     <path fill="#1e293b" d="M3.383.906h.438v.166h-.645V.069h.207z"/>
     <path fill="#1e293b" d="m4.584.069.258.728.256-.728h.272v1.003h-.208V.798l.02-.473-.27.747H4.77L4.5.325l.02.473v.274h-.206V.069Z"/>
     <path fill="#1e293b" d="m6.283.414.188-.345h.238l-.292.497.3.506h-.24L6.283.721l-.193.351h-.24l.3-.506-.293-.497h.238z"/>
     <path fill="#1e293b" d="M4.137 1.072h-.2V.327h.2z"/>
     <ellipse cx="4.037" cy=".17" fill="#ea580c" rx=".114" ry=".101"/>
     <path fill="#1e293b" d="M5.747 1.072h-.2V.327h.2z"/>
     <ellipse cx="5.647" cy=".17" fill="#ea580c" rx=".114" ry=".101"/>
     <path fill="#1e293b" d="M2.727 1.072a.367.367 0 0 1-.267-.1.358.358 0 0 1-.103-.268v-.02c0-.075.015-.141.044-.2a.316.316 0 0 1 .122-.137.346.346 0 0 1 .182-.048c.102 0 .182.032.24.097a.391.391 0 0 1 .089.273V.75h-.475a.186.186 0 0 0 .058.118.18.18 0 0 0 .123.044.215.215 0 0 0 .18-.084l.098.11a.301.301 0 0 1-.121.1.402.402 0 0 1-.17.034zM2.705.46a.126.126 0 0 0-.097.04.208.208 0 0 0-.047.115h.277V.599a.146.146 0 0 0-.036-.102.127.127 0 0 0-.097-.037Z"/>
     <path fill="#ea580c" d="M2.586.214 2.723 0h.217l-.191.214Z"/>
     <path fill="#ea580c" d="M-.084.092v.946h.947V.092h-.946Zm.07.076h.37v.369h-.37Zm.438 0h.369v.369H.424Zm-.438.437h.37v.369h-.37v-.37zm.438 0h.369v.369H.424v-.37z"/>
     <g fill="#1e293b" stroke-width="0">
       <path d="M.291.404H.218L.204.446H.16L.235.243h.039L.35.446H.306zM.23.37H.28L.255.294Z" transform="translate(-.084)"/>
     </g>
     <g fill="#1e293b" stroke-width="0">
       <path d="M.618.446V.243h.07q.038 0 .057.014.02.014.02.042 0 .015-.009.026Q.75.336.735.342.751.346.76.357q.009.012.009.03Q.769.415.75.43.731.446.697.446zM.66.358v.055h.035Q.71.413.718.406.727.398.727.386q0-.028-.03-.028zm0-.03h.03q.032 0 .032-.025 0-.014-.008-.02T.69.277h-.03z" transform="translate(-.084)"/>
     </g>
     <g fill="#1e293b" stroke-width="0">
       <path d="M.325.828Q.323.861.301.88.279.899.243.899.204.899.182.872.16.846.16.8V.788q0-.03.01-.052T.2.702Q.218.69.243.69q.035 0 .057.019.021.019.025.053H.284Q.282.742.273.733.263.724.244.724q-.02 0-.031.015-.01.015-.011.047V.8q0 .033.01.048t.031.015q.02 0 .03-.008.009-.01.01-.028z" transform="translate(-.084)"/>
     </g>
     <g fill="#1e293b" stroke-width="0">
       <path d="M.618.899V.695H.68q.027 0 .048.013Q.75.72.761.742q.012.022.012.05v.01q0 .028-.012.05Q.75.874.728.886.708.9.681.9zM.66.729v.136h.02q.024 0 .037-.016Q.73.833.731.803v-.01Q.73.76.718.744T.68.73z" transform="translate(-.084)"/>
     </g>
  </g>
</svg>